<svg width="64" height="64" viewBox="0 0 64 64" fill="none" xmlns="http://www.w3.org/2000/svg">
  <rect width="64" height="64" rx="14" fill="#0B0F1A"/>
  <path d="M22 11H42V18C42 25.732 37.978 31.436 32 33.171C26.022 31.436 22 25.732 22 18V11Z" fill="#FFD84D"/>
  <path d="M22 15H16C16 22.18 19.438 27.069 25.105 28.664" stroke="#FFD84D" stroke-width="5" stroke-linecap="round"/>
  <path d="M42 15H48C48 22.18 44.562 27.069 38.895 28.664" stroke="#FFD84D" stroke-width="5" stroke-linecap="round"/>
  <path d="M28 33H36V42H28V33Z" fill="#F7B500"/>
  <path d="M22 42H42L45 53H19L22 42Z" fill="#FFD84D"/>
  <path d="M17 53H47V58H17V53Z" fill="#00FF7A"/>
  <path d="M27 16H37V20H27V16Z" fill="#FFF3B0" opacity="0.7"/>
</svg>